<?xml version="1.0" encoding="utf-8"?>
<!-- Generator: Adobe Illustrator 16.0.3, SVG Export Plug-In . SVG Version: 6.00 Build 0)  -->
<!DOCTYPE svg PUBLIC "-//W3C//DTD SVG 1.1//EN" "http://www.w3.org/Graphics/SVG/1.1/DTD/svg11.dtd">
<svg version="1.1" xmlns="http://www.w3.org/2000/svg" xmlns:xlink="http://www.w3.org/1999/xlink" x="0px" y="0px" width="612px"
	 height="792px" viewBox="0 0 612 792" enable-background="new 0 0 612 792" xml:space="preserve">
<g id="Capa_4">
	<text transform="matrix(1 0 0 1 209.5 460.5)" fill="#54C32B" font-family="'Seibi-Seireisho-B-Rg'" font-size="30">Energias Renovables</text>
</g>
<g id="Capa_3">
	<g>
		<path fill="#7AA0EA" d="M450.127,352.939c-1.116,0.175-1.932,1.141-1.909,2.261c0.363,16.32,0.175,30.561-0.565,42.724
			c-1.325,22.219-17.327,28.572-36.428,24.558c-13.702-2.885-17.678-15.749-17.639-27.969c0.052-14.306-0.13-27.703-0.546-40.189
			c-0.025-0.76-0.608-1.384-1.364-1.462l-2.963-0.312c-0.701-0.065-1.053-0.455-1.053-1.169l-0.02-2.962
			c0-1.026,0.521-1.553,1.56-1.579l10.154-0.253c1.259-0.033,2.307,0.961,2.34,2.22c0.001,0.046,0.001,0.092-0.001,0.139
			c-0.52,17.581-0.474,33.452,0.137,47.615c0.585,13.527,6.958,21.245,21.03,20.621c9.628-0.448,15.534-6.022,15.554-16.196
			c0.064-17.62,0.052-34.446-0.039-50.48c-0.011-2.002,1.612-3.634,3.625-3.645c0.006,0,0.013,0,0.02,0l10.485,0.059
			c0.845,0,1.364,0.409,1.56,1.228c0.272,1.104,0.267,2.183-0.02,3.235c-0.164,0.615-0.677,1.075-1.306,1.169L450.127,352.939z"/>
		<path fill="#7AA0EA" d="M220.14,418.641l-0.02-60.908c0-1.299-0.643-1.949-1.93-1.949h-13.818c-1.092,0-1.644,0.546-1.657,1.637
			l-0.117,9.141c-0.013,0.676-0.357,1.007-1.033,0.994l-3.313-0.02c-0.988,0-1.481-0.494-1.481-1.481l-0.059-14.813
			c0-0.871,0.436-1.306,1.306-1.306c16.034-0.039,32.185-0.039,48.453,0c3.17,0.013,4.795,1.611,4.873,4.794
			c0.091,3.625,0.11,7.211,0.059,10.759c-0.026,1.65-0.864,2.456-2.514,2.417l-0.896-0.039c-1.689-0.039-2.521-0.903-2.495-2.592
			c0.052-3.145-0.702-5.977-2.261-8.498c-0.361-0.592-1.01-0.954-1.715-0.955l-12.104-0.039c-0.796-0.011-1.451,0.626-1.461,1.423
			c0,0.006,0,0.013,0,0.02l-0.019,61.901c0,0.539,0.436,0.975,0.974,0.975l7.368-0.02c1.026,0,1.553,0.514,1.579,1.54l0.039,2.729
			c0.026,1.065-0.487,1.599-1.54,1.599h-24.538c-1,0-1.501-0.5-1.501-1.501v-2.865c0-1.013,0.507-1.521,1.521-1.521l6.821,0.059
			C219.646,420.121,220.14,419.627,220.14,418.641z"/>
		<path fill="#7AA0EA" d="M319.775,359.596c-0.091,11.668-0.149,23.609-0.176,35.824c-0.078,22.92-8.829,35.53-33.231,32.821
			c-16.138-1.773-21.42-13.818-21.342-28.046c0.065-13.852-0.117-27.378-0.545-40.58c-0.026-0.767-0.377-1.313-1.053-1.637
			c-0.572-0.286-1.195-0.396-1.871-0.332c-1.663,0.143-2.521-0.624-2.573-2.3l-0.039-1.13c-0.052-1.56,0.708-2.339,2.28-2.339
			l10.466,0.039c0.625,0,1.13,0.506,1.13,1.13l0,0c-0.013,14.111-0.013,28.358,0,42.742c0.02,8.713,2.066,22.492,11.987,25.318
			c11.87,3.353,24.597-0.194,24.812-14.832c0.26-16.125,0.312-33.017,0.155-50.675c-0.021-2.002,1.584-3.643,3.586-3.664
			c0.007,0,0.014,0,0.021,0l10.739-0.02c0.806,0,1.228,0.402,1.267,1.208l0.117,2.67c0.042,0.86-0.534,1.625-1.364,1.813
			c-0.78,0.182-1.554,0.234-2.319,0.156c-1.018-0.107-1.929,0.63-2.037,1.646C319.779,359.472,319.775,359.534,319.775,359.596z"/>
		<path fill="#7AA0EA" d="M376.083,417.387l-0.02-7.66c0-1.701,0.852-2.572,2.554-2.611l0.916-0.02
			c1.585-0.025,2.378,0.747,2.378,2.319l0.02,11.129c0,2.433-1.964,4.405-4.386,4.405h-38.688c-1.104,0-1.695-0.546-1.773-1.638
			l-0.137-1.715c-0.078-1.13,0.441-1.793,1.56-1.988l2.962-0.507c1.092-0.182,1.631-0.831,1.618-1.949l-0.409-61.2
			c0.001-0.563-0.433-1.031-0.994-1.072l-3.099-0.253c-0.759-0.067-1.392-0.607-1.579-1.345c-0.286-1.157-0.234-2.274,0.156-3.353
			c0.246-0.676,0.733-1.013,1.461-1.013h20.407c0.828,0,1.501,0.672,1.501,1.5l0,0v2.865c0,0.987-0.494,1.481-1.481,1.481
			l-6.12,0.02c-1.195,0-2.164,0.969-2.164,2.164l0,0l-0.116,60.635c0,1,0.5,1.5,1.5,1.5h22.22
			C375.512,419.082,376.083,418.518,376.083,417.387z"/>
		<path fill="#7AA0EA" d="M503.239,351.745l-30.191,0.039c-0.8,0-1.451,0.643-1.462,1.442l-0.077,8.206
			c-0.014,1.221-0.611,2.001-1.794,2.339c-0.299,0.078-0.604,0.124-0.916,0.136c-2.026,0.065-3.053-0.916-3.079-2.943l-0.137-13.741
			c-0.011-0.71,0.557-1.295,1.267-1.306c0.007,0,0.014,0,0.021,0h46.153c0.76-0.002,1.391,0.586,1.442,1.345
			c0.155,2.027-0.442,4.1-1.794,6.217c-13.228,20.855-26.13,41.326-38.708,61.415c-0.48,0.792-0.266,1.188,0.644,1.188l33.017,0.02
			c0.538,0,0.975-0.436,0.975-0.975l-0.02-8.809c0-1.339,0.669-2.002,2.008-1.988l2.397,0.039c0.803,0.021,1.442,0.687,1.442,1.5
			l0.02,11.928c0,2.293-1.851,4.152-4.133,4.152l-44.028,0.02c-1.658,0.007-3.008-1.331-3.015-2.989
			c-0.002-0.569,0.158-1.128,0.461-1.61l40.189-64.377C504.44,352.16,504.213,351.745,503.239,351.745z"/>
	</g>
</g>
<g id="Capa_2">
	<g>
		<linearGradient id="SVGID_1_" gradientUnits="userSpaceOnUse" x1="142.1309" y1="368.2163" x2="142.1309" y2="331.4517">
			<stop  offset="0.2374" style="stop-color:#F08C1B;stop-opacity:0.6"/>
			<stop  offset="0.404" style="stop-color:#F6F901"/>
		</linearGradient>
		<path fill="url(#SVGID_1_)" d="M143.674,354.1c1.498-9.844-3.621-16.854-12.215-21.332c-1.066-0.553-1.008-0.916,0.174-1.09
			c13.524-1.993,24.765,9.495,21.289,22.931c-1.891,7.373-9.641,14.73-18.046,13.465c-1.134-0.165-1.221-0.557-0.261-1.178
			C139.05,364.046,142.86,359.421,143.674,354.1z"/>
		<linearGradient id="SVGID_2_" gradientUnits="userSpaceOnUse" x1="119.896" y1="370.2129" x2="119.896" y2="335.0894">
			<stop  offset="0.2374" style="stop-color:#F08C1B;stop-opacity:0.6"/>
			<stop  offset="0.404" style="stop-color:#F6F901"/>
		</linearGradient>
		<path fill="url(#SVGID_2_)" d="M126.399,368.99c-1.125,0.775-2.351,1.183-3.679,1.221c-0.775,0.029-0.906-0.247-0.393-0.829
			c3.708-4.188,4.857-10.673,3.185-16.3c-2.549-8.58-8.773-13.15-18.671-13.713c-2.297-0.125-2.404-0.678-0.32-1.658
			c8.958-4.188,16.47-3.359,22.539,2.487C137.828,348.632,136.113,362.301,126.399,368.99z"/>
		<linearGradient id="SVGID_3_" gradientUnits="userSpaceOnUse" x1="159.0132" y1="372.1909" x2="159.0132" y2="335.9087">
			<stop  offset="0.2374" style="stop-color:#F08C1B;stop-opacity:0.6"/>
			<stop  offset="0.404" style="stop-color:#F6F901"/>
		</linearGradient>
		<path fill="url(#SVGID_3_)" d="M157.867,335.996c19.863,5.279,18.715,30.973-0.452,35.859c-3.184,0.814-6.514,0-9.567-0.843
			c-2.831-0.786-2.807-1.454,0.073-2.007c7.765-1.512,12.631-6.136,14.6-13.872c1.328-5.225,0.097-10.736-3.694-16.533
			c-0.206-0.317-0.523-0.546-0.887-0.64c-0.533-0.126-0.886-0.417-1.061-0.873C156.509,336.088,156.838,335.725,157.867,335.996z"/>
		<linearGradient id="SVGID_4_" gradientUnits="userSpaceOnUse" x1="101.6089" y1="377.7227" x2="101.6089" y2="345.5713">
			<stop  offset="0.2374" style="stop-color:#F08C1B;stop-opacity:0.6"/>
			<stop  offset="0.404" style="stop-color:#F6F901"/>
		</linearGradient>
		<path fill="url(#SVGID_4_)" d="M112.207,376.26c3.344-15.167-11.11-27.963-25.665-21.652c-2.472,1.066-2.836,0.577-1.091-1.469
			c6.505-7.629,14.066-9.491,22.685-5.583c11.691,5.293,14.337,20.241,5.336,29.388C112.26,378.175,111.838,377.947,112.207,376.26z
			"/>
		<linearGradient id="SVGID_5_" gradientUnits="userSpaceOnUse" x1="171.7065" y1="382.7949" x2="171.7065" y2="348.7939">
			<stop  offset="0.2374" style="stop-color:#F08C1B;stop-opacity:0.6"/>
			<stop  offset="0.404" style="stop-color:#F6F901"/>
		</linearGradient>
		<path fill="url(#SVGID_5_)" d="M177.686,368.379c3.563-5.322,3.795-11.837,1.323-17.61c-0.921-2.162-0.431-2.549,1.469-1.163
			c10.993,8.084,9.699,23.15-1.221,30.536c-7.343,4.974-17.261,2.443-23.6-3.374c-0.553-0.504-0.46-0.814,0.275-0.931
			c0.756-0.106,1.479,0.029,2.167,0.407c0.488,0.268,1.031,0.417,1.585,0.436C167.769,377.021,173.77,374.254,177.686,368.379z"/>
		<linearGradient id="SVGID_6_" gradientUnits="userSpaceOnUse" x1="89.9102" y1="388.1807" x2="89.9102" y2="361.2974">
			<stop  offset="0.2374" style="stop-color:#F08C1B;stop-opacity:0.6"/>
			<stop  offset="0.404" style="stop-color:#F6F901"/>
		</linearGradient>
		<path fill="url(#SVGID_6_)" d="M104.791,384.65c-0.93-6.456-7.445-11.982-13-13.509c-7.077-1.958-13.339-0.029-18.787,5.788
			c-0.271,0.291-0.572,0.33-0.901,0.116c-0.233-0.145-0.388-0.364-0.465-0.654c-0.048-0.19-0.042-0.387,0.015-0.567
			c2.898-8.908,8.288-13.722,16.169-14.439c14.411-1.323,24.27,12.709,18.918,25.812c-0.542,1.337-1.018,1.313-1.425-0.073
			C105.091,386.318,104.917,385.494,104.791,384.65z"/>
		<linearGradient id="SVGID_7_" gradientUnits="userSpaceOnUse" x1="180.6353" y1="398.7266" x2="180.6353" y2="369.3638">
			<stop  offset="0.2374" style="stop-color:#F08C1B;stop-opacity:0.6"/>
			<stop  offset="0.404" style="stop-color:#F6F901"/>
		</linearGradient>
		<path fill="url(#SVGID_7_)" d="M176.043,390.133c10.644-0.175,18.714-9.568,18.045-20.125c-0.026-0.328,0.218-0.616,0.547-0.643
			c0.119-0.009,0.237,0.017,0.34,0.075c0.446,0.242,0.781,0.601,1.004,1.076c3.548,7.261,3.543,13.673-0.015,19.237
			c-3.161,4.945-7.625,7.857-13.393,8.74c-7.386,1.125-13.542-1.842-18.467-8.9c-0.698-0.999-1.173-2.094-1.424-3.286
			c-0.156-0.737,0.077-0.891,0.698-0.465C167.672,388.771,171.894,390.201,176.043,390.133z"/>
		<linearGradient id="SVGID_8_" gradientUnits="userSpaceOnUse" x1="85.8398" y1="403.4961" x2="85.8398" y2="380.1621">
			<stop  offset="0.2374" style="stop-color:#F08C1B;stop-opacity:0.6"/>
			<stop  offset="0.404" style="stop-color:#F6F901"/>
		</linearGradient>
		<path fill="url(#SVGID_8_)" d="M95.892,392.357c-11.967-6.122-21.579-1.062-27.017,9.916c-0.863,1.727-1.338,1.625-1.425-0.305
			c-0.456-9.326,2.758-15.811,9.641-19.456c12.462-6.587,26.291,1.324,27.163,15.544c0.136,2.26-0.412,2.439-1.643,0.539
			C100.797,395.794,98.558,393.714,95.892,392.357z"/>
		<linearGradient id="SVGID_9_" gradientUnits="userSpaceOnUse" x1="183.7788" y1="417.4863" x2="183.7788" y2="394.748">
			<stop  offset="0.2374" style="stop-color:#F08C1B;stop-opacity:0.6"/>
			<stop  offset="0.404" style="stop-color:#F6F901"/>
		</linearGradient>
		<path fill="url(#SVGID_9_)" d="M170.067,402.914c9.902,8.565,24.167,5.715,29.736-6.093c1.367-2.908,2.147-2.758,2.341,0.452
			c0.465,8.025-2.661,14.002-9.379,17.929c-5.904,3.446-14.076,2.908-19.471-1.047c-5.06-3.714-7.702-8.942-7.925-15.69
			c-0.029-0.921,0.271-1.043,0.901-0.363C167.624,399.584,168.54,401.592,170.067,402.914z"/>
		<linearGradient id="SVGID_10_" gradientUnits="userSpaceOnUse" x1="88.9604" y1="428.1367" x2="88.9604" y2="398.6406">
			<stop  offset="0.2374" style="stop-color:#F08C1B;stop-opacity:0.6"/>
			<stop  offset="0.404" style="stop-color:#F6F901"/>
		</linearGradient>
		<path fill="url(#SVGID_10_)" d="M104.398,410.768c-13.174-8.406-28.457,0.115-28.879,15.384c-0.068,2.481-0.712,2.637-1.934,0.465
			c-8.609-15.355,6.936-33.692,23.266-26.276c4.343,1.969,7.45,4.921,9.321,8.856C107.394,411.774,106.803,412.298,104.398,410.768z
			"/>
		<linearGradient id="SVGID_11_" gradientUnits="userSpaceOnUse" x1="179.8813" y1="436.0742" x2="179.8813" y2="409.3047">
			<stop  offset="0.2374" style="stop-color:#F08C1B;stop-opacity:0.6"/>
			<stop  offset="0.404" style="stop-color:#F6F901"/>
		</linearGradient>
		<path fill="url(#SVGID_11_)" d="M186.324,434.789c-14.745,5.656-28.967-8.274-23.557-23.762c0.813-2.346,1.43-2.296,1.847,0.146
			c2.544,15.239,20.998,21.463,32.02,9.888c1.347-1.405,1.808-1.158,1.381,0.742C196.638,427.998,192.742,432.326,186.324,434.789z"
			/>
		<linearGradient id="SVGID_12_" gradientUnits="userSpaceOnUse" x1="97.6089" y1="448.7793" x2="97.6089" y2="414.5205">
			<stop  offset="0.2374" style="stop-color:#F08C1B;stop-opacity:0.6"/>
			<stop  offset="0.404" style="stop-color:#F6F901"/>
		</linearGradient>
		<path fill="url(#SVGID_12_)" d="M110.869,421.295c-5.845-1.76-14.032,1.424-17.74,6.266c-4.285,5.614-5.128,12.085-2.53,19.414
			c0.717,2.026,0.252,2.347-1.396,0.959c-20.401-17.158,4.755-45.979,24.196-27.395c0.248,0.229,0.256,0.618,0.017,0.866
			c-0.119,0.122-0.283,0.192-0.454,0.195C112.236,421.59,111.538,421.488,110.869,421.295z"/>
		<linearGradient id="SVGID_13_" gradientUnits="userSpaceOnUse" x1="167.9126" y1="452.124" x2="167.9126" y2="420.2061">
			<stop  offset="0.2374" style="stop-color:#F08C1B;stop-opacity:0.6"/>
			<stop  offset="0.404" style="stop-color:#F6F901"/>
		</linearGradient>
		<path fill="url(#SVGID_13_)" d="M161.895,438.758c5.923,6.001,13.237,7.373,21.942,4.115c1.474-0.552,1.731-0.203,0.771,1.047
			c-15.864,20.766-45.456-2.051-29.257-22.393c1.6-1.997,2.225-1.73,1.876,0.799C156.427,428.289,157.576,434.396,161.895,438.758z"
			/>
		<linearGradient id="SVGID_14_" gradientUnits="userSpaceOnUse" x1="110.4297" y1="462.2412" x2="110.4297" y2="425.7246">
			<stop  offset="0.2374" style="stop-color:#F08C1B;stop-opacity:0.6"/>
			<stop  offset="0.404" style="stop-color:#F6F901"/>
		</linearGradient>
		<path fill="url(#SVGID_14_)" d="M122.764,428.245c-15.85,2.879-21.463,20.938-10.005,32.471c1.406,1.425,1.154,1.851-0.756,1.28
			c-16.417-4.915-19.936-24.256-5.525-34.071c4.449-3.024,11.167-2.297,16.082-1.512c0.669,0.106,0.95,0.499,0.844,1.178
			C123.354,427.92,123.097,428.183,122.764,428.245z"/>
		<linearGradient id="SVGID_15_" gradientUnits="userSpaceOnUse" x1="149.7378" y1="462.6953" x2="149.7378" y2="427.0244">
			<stop  offset="0.2374" style="stop-color:#F08C1B;stop-opacity:0.6"/>
			<stop  offset="0.404" style="stop-color:#F6F901"/>
		</linearGradient>
		<path fill="url(#SVGID_15_)" d="M147.44,428.449c-10.455,12.708,0.103,30.057,15.632,29.519c0.515-0.01,0.941,0.179,1.28,0.566
			c0.194,0.215,0.171,0.55-0.051,0.746c-0.029,0.026-0.06,0.05-0.094,0.068c-7.552,4.149-14.246,4.44-20.082,0.873
			c-6.155-3.762-9.199-9.214-9.131-16.358c0.068-7.088,3.713-12.637,10.935-16.651c0.359-0.203,0.732-0.241,1.12-0.115
			c0.449,0.151,0.69,0.639,0.538,1.087C147.553,428.28,147.504,428.369,147.44,428.449z"/>
		<linearGradient id="SVGID_16_" gradientUnits="userSpaceOnUse" x1="127.3232" y1="466.2686" x2="127.3232" y2="428.9746">
			<stop  offset="0.2374" style="stop-color:#F08C1B;stop-opacity:0.6"/>
			<stop  offset="0.404" style="stop-color:#F6F901"/>
		</linearGradient>
		<path fill="url(#SVGID_16_)" d="M134.876,430.906c-5.292,3.635-9.131,8.958-9,15.734c0.165,8.22,3.945,14.037,11.342,17.448
			c1.522,0.698,1.479,1.28-0.131,1.745c-1.774,0.514-3.616,0.572-5.525,0.175c-7.949-1.657-12.859-6.394-14.73-14.207
			c-2.763-11.546,6.02-22.35,17.406-22.815C136.68,428.88,136.893,429.521,134.876,430.906z"/>
	</g>
</g>
</svg>
