<?xml version="1.0" encoding="utf-8"?>
<!-- Generator: Adobe Illustrator 16.0.3, SVG Export Plug-In . SVG Version: 6.00 Build 0)  -->
<!DOCTYPE svg PUBLIC "-//W3C//DTD SVG 1.1//EN" "http://www.w3.org/Graphics/SVG/1.1/DTD/svg11.dtd">
<svg version="1.1" xmlns="http://www.w3.org/2000/svg" xmlns:xlink="http://www.w3.org/1999/xlink" x="0px" y="0px" width="612px"
	 height="792px" viewBox="0 0 612 792" enable-background="new 0 0 612 792" xml:space="preserve">
<g id="Capa_5" display="none">
	
		<rect x="51.5" y="314.5" display="inline" fill="#FFFFFF" stroke="#000000" stroke-width="0.25" stroke-miterlimit="10" width="486" height="156"/>
</g>
<g id="Capa_4">
	<text transform="matrix(1 0 0 1 209.5 460.5)" fill="#54C32B" font-family="'Seibi-Seireisho-B-Rg'" font-size="30">Energias Renovables</text>
</g>
<g id="Capa_3">
	<g>
		<path fill="#7AA0EA" d="M456.127,360.939c-1.116,0.175-1.932,1.141-1.909,2.261c0.363,16.32,0.175,30.562-0.565,42.724
			c-1.325,22.219-17.327,28.572-36.428,24.558c-13.702-2.885-17.678-15.749-17.639-27.969c0.052-14.306-0.13-27.703-0.546-40.189
			c-0.025-0.76-0.608-1.384-1.364-1.462l-2.963-0.312c-0.701-0.065-1.053-0.455-1.053-1.169l-0.02-2.962
			c0-1.026,0.521-1.553,1.56-1.579l10.154-0.253c1.259-0.033,2.307,0.961,2.34,2.22c0.001,0.046,0.001,0.092-0.001,0.139
			c-0.52,17.581-0.474,33.452,0.137,47.615c0.585,13.527,6.958,21.245,21.03,20.621c9.628-0.448,15.534-6.022,15.554-16.196
			c0.064-17.62,0.052-34.446-0.039-50.48c-0.011-2.002,1.612-3.634,3.625-3.645c0.006,0,0.013,0,0.02,0l10.485,0.059
			c0.845,0,1.364,0.409,1.56,1.228c0.272,1.104,0.267,2.183-0.02,3.235c-0.164,0.615-0.677,1.075-1.306,1.169L456.127,360.939z"/>
		<path fill="#7AA0EA" d="M226.14,423.641l-0.02-60.908c0-1.299-0.643-1.949-1.93-1.949h-13.818c-1.092,0-1.644,0.546-1.657,1.637
			l-0.117,9.141c-0.013,0.676-0.357,1.007-1.033,0.994l-3.313-0.02c-0.988,0-1.481-0.494-1.481-1.481l-0.059-14.813
			c0-0.871,0.436-1.306,1.306-1.306c16.034-0.039,32.185-0.039,48.453,0c3.17,0.013,4.795,1.611,4.873,4.794
			c0.091,3.625,0.11,7.211,0.059,10.759c-0.026,1.65-0.864,2.456-2.514,2.417l-0.896-0.039c-1.689-0.039-2.521-0.903-2.495-2.592
			c0.052-3.145-0.702-5.977-2.261-8.498c-0.361-0.592-1.01-0.954-1.715-0.955l-12.104-0.039c-0.796-0.011-1.451,0.626-1.461,1.423
			c0,0.006,0,0.013,0,0.02l-0.019,61.901c0,0.539,0.436,0.975,0.974,0.975l7.368-0.02c1.026,0,1.553,0.514,1.579,1.54l0.039,2.729
			c0.026,1.065-0.487,1.599-1.54,1.599h-24.538c-1,0-1.501-0.5-1.501-1.501v-2.865c0-1.013,0.507-1.521,1.521-1.521l6.821,0.059
			C225.646,425.121,226.14,424.627,226.14,423.641z"/>
		<path fill="#7AA0EA" d="M325.775,362.596c-0.091,11.668-0.149,23.609-0.176,35.824c-0.078,22.92-8.829,35.53-33.231,32.821
			c-16.138-1.773-21.42-13.818-21.342-28.046c0.065-13.852-0.117-27.378-0.545-40.58c-0.026-0.767-0.377-1.313-1.053-1.637
			c-0.572-0.286-1.195-0.396-1.871-0.332c-1.663,0.143-2.521-0.624-2.573-2.3l-0.039-1.13c-0.052-1.56,0.708-2.339,2.28-2.339
			l10.466,0.039c0.625,0,1.13,0.506,1.13,1.13l0,0c-0.013,14.111-0.013,28.358,0,42.742c0.02,8.713,2.066,22.492,11.987,25.318
			c11.87,3.353,24.597-0.194,24.812-14.832c0.26-16.125,0.312-33.017,0.155-50.675c-0.021-2.002,1.584-3.643,3.586-3.664
			c0.007,0,0.014,0,0.021,0l10.739-0.02c0.806,0,1.228,0.402,1.267,1.208l0.117,2.67c0.042,0.86-0.534,1.625-1.364,1.813
			c-0.78,0.182-1.554,0.234-2.319,0.156c-1.018-0.107-1.929,0.63-2.037,1.646C325.779,362.472,325.775,362.534,325.775,362.596z"/>
		<path fill="#7AA0EA" d="M382.083,423.387l-0.02-7.66c0-1.701,0.852-2.572,2.554-2.611l0.916-0.02
			c1.585-0.025,2.378,0.747,2.378,2.319l0.02,11.129c0,2.433-1.964,4.405-4.386,4.405h-38.688c-1.104,0-1.695-0.546-1.773-1.638
			l-0.137-1.715c-0.078-1.13,0.441-1.793,1.56-1.988l2.962-0.507c1.092-0.182,1.631-0.831,1.618-1.949l-0.409-61.2
			c0.001-0.563-0.433-1.031-0.994-1.072l-3.099-0.253c-0.759-0.067-1.392-0.607-1.579-1.345c-0.286-1.157-0.234-2.274,0.156-3.353
			c0.246-0.676,0.733-1.013,1.461-1.013h20.407c0.828,0,1.501,0.672,1.501,1.5l0,0v2.865c0,0.987-0.494,1.481-1.481,1.481
			l-6.12,0.02c-1.195,0-2.164,0.969-2.164,2.164l0,0l-0.116,60.635c0,1,0.5,1.5,1.5,1.5h22.22
			C381.512,425.082,382.083,424.518,382.083,423.387z"/>
		<path fill="#7AA0EA" d="M509.239,360.745l-30.191,0.039c-0.8,0-1.451,0.643-1.462,1.442l-0.077,8.206
			c-0.014,1.221-0.611,2.001-1.794,2.339c-0.299,0.078-0.604,0.124-0.916,0.136c-2.026,0.065-3.053-0.916-3.079-2.943l-0.137-13.741
			c-0.011-0.71,0.557-1.295,1.267-1.306c0.007,0,0.014,0,0.021,0h46.153c0.76-0.002,1.391,0.586,1.442,1.345
			c0.155,2.027-0.442,4.1-1.794,6.217c-13.228,20.855-26.13,41.326-38.708,61.415c-0.48,0.792-0.266,1.188,0.644,1.188l33.017,0.02
			c0.538,0,0.975-0.436,0.975-0.975l-0.02-8.809c0-1.339,0.669-2.002,2.008-1.988l2.397,0.039c0.803,0.021,1.442,0.687,1.442,1.5
			l0.02,11.928c0,2.293-1.851,4.152-4.133,4.152l-44.028,0.02c-1.658,0.007-3.008-1.331-3.015-2.989
			c-0.002-0.569,0.158-1.128,0.461-1.61l40.189-64.377C510.44,361.16,510.213,360.745,509.239,360.745z"/>
	</g>
</g>
<g id="Capa_2">
	<g>
		<linearGradient id="SVGID_1_" gradientUnits="userSpaceOnUse" x1="138.3027" y1="364.1885" x2="138.3027" y2="328.4512">
			<stop  offset="0.2374" style="stop-color:#F08C1B;stop-opacity:0.6"/>
			<stop  offset="0.404" style="stop-color:#F6F901"/>
		</linearGradient>
		<path fill="url(#SVGID_1_)" d="M139.85,350.466c1.501-9.569-3.629-16.382-12.243-20.735c-1.068-0.538-1.011-0.891,0.175-1.06
			c13.555-1.937,24.822,9.229,21.338,22.29c-1.895,7.167-9.663,14.318-18.088,13.089c-1.136-0.16-1.224-0.542-0.262-1.145
			C135.215,360.135,139.034,355.64,139.85,350.466z"/>
		<linearGradient id="SVGID_2_" gradientUnits="userSpaceOnUse" x1="116.0166" y1="366.1294" x2="116.0166" y2="331.9878">
			<stop  offset="0.2374" style="stop-color:#F08C1B;stop-opacity:0.6"/>
			<stop  offset="0.404" style="stop-color:#F6F901"/>
		</linearGradient>
		<path fill="url(#SVGID_2_)" d="M122.535,364.94c-1.127,0.754-2.356,1.15-3.688,1.187c-0.777,0.028-0.908-0.24-0.394-0.806
			c3.716-4.071,4.868-10.375,3.192-15.844c-2.555-8.34-8.793-12.783-18.714-13.33c-2.303-0.122-2.41-0.66-0.321-1.611
			c8.979-4.071,16.508-3.265,22.591,2.417C133.99,345.151,132.271,358.438,122.535,364.94z"/>
		<linearGradient id="SVGID_3_" gradientUnits="userSpaceOnUse" x1="155.2236" y1="368.0522" x2="155.2236" y2="332.7842">
			<stop  offset="0.2374" style="stop-color:#F08C1B;stop-opacity:0.6"/>
			<stop  offset="0.404" style="stop-color:#F6F901"/>
		</linearGradient>
		<path fill="url(#SVGID_3_)" d="M154.075,332.869c19.909,5.131,18.758,30.107-0.453,34.856c-3.191,0.791-6.528,0-9.589-0.82
			c-2.837-0.764-2.813-1.414,0.073-1.951c7.783-1.469,12.66-5.964,14.633-13.484c1.331-5.079,0.097-10.436-3.703-16.071
			c-0.206-0.309-0.524-0.531-0.889-0.622c-0.534-0.122-0.888-0.405-1.063-0.848C152.714,332.958,153.044,332.605,154.075,332.869z"
			/>
		<linearGradient id="SVGID_4_" gradientUnits="userSpaceOnUse" x1="97.688" y1="373.4292" x2="97.688" y2="342.1768">
			<stop  offset="0.2374" style="stop-color:#F08C1B;stop-opacity:0.6"/>
			<stop  offset="0.404" style="stop-color:#F6F901"/>
		</linearGradient>
		<path fill="url(#SVGID_4_)" d="M108.31,372.008c3.352-14.743-11.135-27.181-25.724-21.047c-2.478,1.037-2.842,0.561-1.093-1.428
			c6.52-7.416,14.099-9.225,22.737-5.427c11.718,5.145,14.371,19.675,5.348,28.566C108.364,373.869,107.941,373.647,108.31,372.008z
			"/>
		<linearGradient id="SVGID_5_" gradientUnits="userSpaceOnUse" x1="167.9468" y1="378.3599" x2="167.9468" y2="345.3091">
			<stop  offset="0.2374" style="stop-color:#F08C1B;stop-opacity:0.6"/>
			<stop  offset="0.404" style="stop-color:#F6F901"/>
		</linearGradient>
		<path fill="url(#SVGID_5_)" d="M173.94,364.347c3.571-5.173,3.804-11.506,1.326-17.118c-0.923-2.101-0.432-2.478,1.472-1.13
			c11.018,7.858,9.721,22.502-1.224,29.682c-7.36,4.835-17.3,2.375-23.654-3.279c-0.554-0.49-0.461-0.792,0.276-0.905
			c0.758-0.104,1.482,0.028,2.172,0.396c0.489,0.26,1.033,0.406,1.589,0.424C164,372.748,170.015,370.058,173.94,364.347z"/>
		<linearGradient id="SVGID_6_" gradientUnits="userSpaceOnUse" x1="85.9624" y1="383.5952" x2="85.9624" y2="357.4629">
			<stop  offset="0.2374" style="stop-color:#F08C1B;stop-opacity:0.6"/>
			<stop  offset="0.404" style="stop-color:#F6F901"/>
		</linearGradient>
		<path fill="url(#SVGID_6_)" d="M100.877,380.163c-0.932-6.275-7.462-11.647-13.03-13.131c-7.093-1.903-13.37-0.028-18.831,5.625
			c-0.272,0.283-0.573,0.321-0.903,0.113c-0.233-0.141-0.389-0.354-0.466-0.636c-0.048-0.185-0.042-0.376,0.015-0.551
			c2.905-8.659,8.307-13.338,16.207-14.036c14.444-1.286,24.326,12.354,18.961,25.09c-0.543,1.3-1.02,1.276-1.428-0.071
			C101.178,381.785,101.003,380.983,100.877,380.163z"/>
		<linearGradient id="SVGID_7_" gradientUnits="userSpaceOnUse" x1="176.896" y1="393.8457" x2="176.896" y2="365.3037">
			<stop  offset="0.2374" style="stop-color:#F08C1B;stop-opacity:0.6"/>
			<stop  offset="0.404" style="stop-color:#F6F901"/>
		</linearGradient>
		<path fill="url(#SVGID_7_)" d="M172.293,385.492c10.668-0.17,18.758-9.301,18.087-19.562c-0.026-0.319,0.218-0.599,0.548-0.625
			c0.119-0.009,0.237,0.017,0.341,0.073c0.447,0.235,0.783,0.584,1.006,1.046c3.556,7.058,3.551,13.291-0.015,18.699
			c-3.168,4.807-7.643,7.638-13.424,8.496c-7.403,1.093-13.574-1.791-18.51-8.651c-0.7-0.971-1.176-2.035-1.428-3.194
			c-0.156-0.716,0.078-0.866,0.7-0.452C163.903,384.168,168.135,385.559,172.293,385.492z"/>
		<linearGradient id="SVGID_8_" gradientUnits="userSpaceOnUse" x1="81.8823" y1="398.4824" x2="81.8823" y2="375.8003">
			<stop  offset="0.2374" style="stop-color:#F08C1B;stop-opacity:0.6"/>
			<stop  offset="0.404" style="stop-color:#F6F901"/>
		</linearGradient>
		<path fill="url(#SVGID_8_)" d="M91.957,387.655c-11.995-5.95-21.628-1.032-27.079,9.638c-0.865,1.68-1.341,1.58-1.429-0.295
			c-0.457-9.065,2.765-15.37,9.663-18.913c12.491-6.403,26.351,1.287,27.226,15.109c0.136,2.197-0.413,2.371-1.647,0.524
			C96.874,390.995,94.629,388.974,91.957,387.655z"/>
		<linearGradient id="SVGID_9_" gradientUnits="userSpaceOnUse" x1="180.0469" y1="412.0811" x2="180.0469" y2="389.9785">
			<stop  offset="0.2374" style="stop-color:#F08C1B;stop-opacity:0.6"/>
			<stop  offset="0.404" style="stop-color:#F6F901"/>
		</linearGradient>
		<path fill="url(#SVGID_9_)" d="M166.303,397.916c9.925,8.326,24.222,5.556,29.805-5.922c1.37-2.827,2.152-2.681,2.347,0.439
			c0.466,7.801-2.667,13.61-9.4,17.428c-5.917,3.35-14.108,2.826-19.516-1.018c-5.072-3.61-7.719-8.692-7.943-15.252
			c-0.029-0.896,0.271-1.014,0.903-0.354C163.854,394.679,164.772,396.631,166.303,397.916z"/>
		<linearGradient id="SVGID_10_" gradientUnits="userSpaceOnUse" x1="85.0103" y1="422.4336" x2="85.0103" y2="393.7622">
			<stop  offset="0.2374" style="stop-color:#F08C1B;stop-opacity:0.6"/>
			<stop  offset="0.404" style="stop-color:#F6F901"/>
		</linearGradient>
		<path fill="url(#SVGID_10_)" d="M100.483,405.551c-13.205-8.172-28.522,0.111-28.945,14.953c-0.068,2.412-0.714,2.563-1.938,0.452
			c-8.628-14.927,6.952-32.75,23.319-25.542c4.353,1.914,7.467,4.783,9.342,8.609C103.486,406.529,102.894,407.038,100.483,405.551z
			"/>
		<linearGradient id="SVGID_11_" gradientUnits="userSpaceOnUse" x1="176.1401" y1="430.1504" x2="176.1401" y2="404.1279">
			<stop  offset="0.2374" style="stop-color:#F08C1B;stop-opacity:0.6"/>
			<stop  offset="0.404" style="stop-color:#F6F901"/>
		</linearGradient>
		<path fill="url(#SVGID_11_)" d="M182.598,428.9c-14.779,5.498-29.034-8.043-23.611-23.098c0.815-2.28,1.433-2.231,1.851,0.143
			c2.55,14.813,21.046,20.863,32.094,9.611c1.35-1.366,1.812-1.126,1.385,0.722C192.936,422.299,189.03,426.506,182.598,428.9z"/>
		<linearGradient id="SVGID_12_" gradientUnits="userSpaceOnUse" x1="93.6782" y1="442.5" x2="93.6782" y2="409.1982">
			<stop  offset="0.2374" style="stop-color:#F08C1B;stop-opacity:0.6"/>
			<stop  offset="0.404" style="stop-color:#F6F901"/>
		</linearGradient>
		<path fill="url(#SVGID_12_)" d="M106.969,415.783c-5.859-1.71-14.064,1.384-17.781,6.091c-4.294,5.457-5.14,11.747-2.536,18.871
			c0.719,1.97,0.253,2.281-1.398,0.933c-20.448-16.679,4.766-44.693,24.252-26.629c0.248,0.223,0.256,0.601,0.017,0.842
			c-0.119,0.119-0.283,0.188-0.455,0.189C108.339,416.07,107.639,415.972,106.969,415.783z"/>
		<linearGradient id="SVGID_13_" gradientUnits="userSpaceOnUse" x1="164.144" y1="445.75" x2="164.144" y2="414.7246">
			<stop  offset="0.2374" style="stop-color:#F08C1B;stop-opacity:0.6"/>
			<stop  offset="0.404" style="stop-color:#F6F901"/>
		</linearGradient>
		<path fill="url(#SVGID_13_)" d="M158.112,432.758c5.937,5.834,13.268,7.167,21.993,4.001c1.478-0.537,1.735-0.198,0.773,1.018
			c-15.901,20.185-45.561-1.994-29.325-21.767c1.604-1.941,2.23-1.683,1.88,0.776C152.632,422.582,153.783,428.519,158.112,432.758z
			"/>
		<linearGradient id="SVGID_14_" gradientUnits="userSpaceOnUse" x1="106.5288" y1="455.585" x2="106.5288" y2="420.0889">
			<stop  offset="0.2374" style="stop-color:#F08C1B;stop-opacity:0.6"/>
			<stop  offset="0.404" style="stop-color:#F6F901"/>
		</linearGradient>
		<path fill="url(#SVGID_14_)" d="M118.892,422.539c-15.887,2.799-21.512,20.354-10.028,31.563c1.41,1.385,1.156,1.799-0.758,1.244
			c-16.455-4.777-19.982-23.577-5.538-33.119c4.459-2.939,11.193-2.232,16.119-1.469c0.67,0.104,0.953,0.484,0.846,1.145
			C119.482,422.224,119.226,422.479,118.892,422.539z"/>
		<linearGradient id="SVGID_15_" gradientUnits="userSpaceOnUse" x1="145.9272" y1="456.0264" x2="145.9272" y2="421.3525">
			<stop  offset="0.2374" style="stop-color:#F08C1B;stop-opacity:0.6"/>
			<stop  offset="0.404" style="stop-color:#F6F901"/>
		</linearGradient>
		<path fill="url(#SVGID_15_)" d="M143.624,422.737c-10.479,12.354,0.103,29.217,15.668,28.694c0.516-0.01,0.943,0.173,1.283,0.55
			c0.194,0.209,0.171,0.535-0.051,0.726c-0.029,0.025-0.06,0.049-0.095,0.066c-7.569,4.033-14.279,4.316-20.128,0.849
			c-6.169-3.656-9.221-8.956-9.152-15.901c0.068-6.89,3.721-12.283,10.96-16.186c0.36-0.197,0.734-0.234,1.123-0.112
			c0.45,0.147,0.691,0.621,0.539,1.057C143.738,422.573,143.689,422.66,143.624,422.737z"/>
		<linearGradient id="SVGID_16_" gradientUnits="userSpaceOnUse" x1="123.4614" y1="459.5" x2="123.4614" y2="423.249">
			<stop  offset="0.2374" style="stop-color:#F08C1B;stop-opacity:0.6"/>
			<stop  offset="0.404" style="stop-color:#F6F901"/>
		</linearGradient>
		<path fill="url(#SVGID_16_)" d="M131.032,425.126c-5.305,3.533-9.152,8.708-9.021,15.295c0.165,7.989,3.954,13.645,11.368,16.96
			c1.526,0.679,1.482,1.245-0.131,1.696c-1.778,0.5-3.624,0.557-5.538,0.17c-7.968-1.61-12.889-6.215-14.765-13.81
			c-2.769-11.223,6.034-21.725,17.446-22.178C132.839,423.156,133.053,423.779,131.032,425.126z"/>
	</g>
</g>
</svg>
