<?xml version="1.0" encoding="utf-8"?>
<!-- Generator: Adobe Illustrator 16.0.3, SVG Export Plug-In . SVG Version: 6.00 Build 0)  -->
<!DOCTYPE svg PUBLIC "-//W3C//DTD SVG 1.1//EN" "http://www.w3.org/Graphics/SVG/1.1/DTD/svg11.dtd">
<svg version="1.1" id="Capa_2" xmlns="http://www.w3.org/2000/svg" xmlns:xlink="http://www.w3.org/1999/xlink" x="0px" y="0px"
	 width="612px" height="792px" viewBox="0 0 612 792" enable-background="new 0 0 612 792" xml:space="preserve">
<g display="none">
	<rect x="200.5" y="82.5" display="inline" fill="#FFFFFF" width="165" height="165"/>
	<path display="inline" d="M365.5,247.5l-165,0.063h-0.063V247.5l-0.062-165v-0.125h0.125l165,0.062h0.063V82.5L365.5,247.5z
		 M365.5,247.5l-0.063-165l0.063,0.063l-165,0.062l0.125-0.125l-0.062,165l-0.063-0.063L365.5,247.5z"/>
</g>
<text transform="matrix(0.8106 0 0 1 35.5 560.1367)" fill="#54C32B" font-family="'Seibi-Seireisho-B-Rg'" font-size="65.9981">Energias Renovables</text>
<g>
	<path fill="#7AA0EA" d="M457.286,393.742c-1.8,0.25-3.119,1.629-3.082,3.23c0.591,23.305,0.279,43.643-0.914,61.013
		c-2.14,31.729-27.984,40.8-58.841,35.068c-22.136-4.119-28.552-22.489-28.493-39.94c0.081-20.432-0.212-39.563-0.885-57.394
		c-0.042-1.084-0.979-1.977-2.204-2.087l-4.789-0.446c-1.129-0.091-1.697-0.648-1.697-1.67l-0.03-4.231
		c0-1.464,0.838-2.217,2.519-2.252l16.402-0.364c2.032-0.046,3.727,1.374,3.783,3.171c0,0.066,0,0.131,0,0.198
		c-0.843,25.105-0.767,47.771,0.221,67.998c0.941,19.317,11.235,30.339,33.967,29.447c15.551-0.64,25.097-8.601,25.124-23.129
		c0.111-25.162,0.086-49.191-0.06-72.089c-0.019-2.857,2.602-5.188,5.85-5.205c0.016,0,0.025,0,0.035,0l16.933,0.083
		c1.368,0,2.205,0.586,2.521,1.754c0.449,1.578,0.436,3.117-0.027,4.619c-0.266,0.881-1.093,1.537-2.107,1.67L457.286,393.742z"/>
	<path fill="#7AA0EA" d="M85.779,483.285l-0.033-86.981c0-1.856-1.04-2.785-3.12-2.785h-22.32c-1.759,0-2.657,0.779-2.674,2.339
		l-0.188,13.054c-0.02,0.965-0.577,1.437-1.667,1.419l-5.351-0.026c-1.6,0-2.395-0.707-2.395-2.115l-0.095-21.154
		c0-1.244,0.702-1.863,2.106-1.863c25.903-0.057,51.99-0.057,78.271,0c5.119,0.016,7.746,2.298,7.871,6.844
		c0.151,5.179,0.181,10.299,0.093,15.364c-0.038,2.356-1.397,3.506-4.061,3.453l-1.447-0.056c-2.732-0.058-4.072-1.29-4.03-3.703
		c0.082-4.491-1.133-8.533-3.651-12.135c-0.584-0.845-1.637-1.363-2.77-1.363l-19.55-0.057c-1.291-0.016-2.344,0.896-2.364,2.032
		c0,0.009,0,0.018,0,0.027l-0.03,88.398c0,0.77,0.702,1.393,1.572,1.393l11.9-0.028c1.659,0,2.512,0.733,2.549,2.2l0.063,3.897
		c0.044,1.52-0.783,2.28-2.487,2.28H72.338c-1.617,0-2.424-0.714-2.424-2.144v-4.091c0-1.444,0.813-2.171,2.456-2.171l11.015,0.083
		C84.983,485.397,85.779,484.692,85.779,483.285z"/>
	<path fill="#7AA0EA" d="M246.729,396.108c-0.148,16.663-0.249,33.716-0.288,51.158c-0.124,32.731-14.26,50.738-53.677,46.87
		c-26.066-2.533-34.607-19.732-34.48-40.051c0.107-19.782-0.188-39.098-0.877-57.95c-0.043-1.094-0.614-1.875-1.705-2.337
		c-0.92-0.409-1.93-0.565-3.021-0.474c-2.687,0.204-4.073-0.89-4.153-3.284l-0.062-1.615c-0.089-2.227,1.141-3.34,3.684-3.34
		l16.905,0.056c1.008,0,1.828,0.723,1.828,1.615l0,0c-0.023,20.15-0.023,40.5,0,61.038c0.027,12.444,3.336,32.119,19.363,36.156
		c19.175,4.787,39.729-0.276,40.077-21.181c0.417-23.026,0.503-47.152,0.252-72.367c-0.037-2.858,2.558-5.202,5.791-5.231
		c0.014,0,0.024,0,0.036,0l17.347-0.03c1.302,0,1.98,0.575,2.043,1.728l0.188,3.813c0.074,1.226-0.855,2.318-2.195,2.586
		c-1.267,0.259-2.518,0.333-3.746,0.221c-1.655-0.153-3.122,0.902-3.298,2.353C246.73,395.931,246.729,396.02,246.729,396.108z"/>
	<path fill="#7AA0EA" d="M337.688,482.921l-0.038-10.939c0-2.429,1.377-3.673,4.124-3.728l1.479-0.028
		c2.567-0.038,3.846,1.066,3.846,3.312l0.026,15.894c0,3.475-3.17,6.289-7.085,6.289h-62.494c-1.781,0-2.733-0.778-2.858-2.337
		l-0.227-2.449c-0.125-1.614,0.714-2.561,2.521-2.841l4.787-0.723c1.766-0.26,2.631-1.188,2.607-2.783l-0.653-87.396
		c0-0.804-0.702-1.474-1.614-1.531l-5.001-0.362c-1.229-0.096-2.246-0.868-2.545-1.92c-0.465-1.65-0.386-3.246,0.25-4.787
		c0.39-0.965,1.18-1.449,2.356-1.449h32.961c1.341,0,2.429,0.961,2.429,2.143l0,0v4.093c0,1.409-0.8,2.114-2.394,2.114l-9.886,0.029
		c-1.931,0-3.497,1.383-3.497,3.089l0,0l-0.187,86.591c0,1.428,0.812,2.143,2.418,2.143h35.902
		C336.759,485.342,337.688,484.535,337.688,482.921z"/>
	<path fill="#7AA0EA" d="M543.082,393.462l-48.772,0.058c-1.28,0-2.334,0.917-2.359,2.06l-0.124,11.717
		c-0.021,1.746-0.978,2.86-2.894,3.342c-0.488,0.112-0.977,0.176-1.479,0.195c-3.272,0.091-4.928-1.31-4.978-4.204l-0.223-19.62
		c-0.014-1.016,0.899-1.851,2.053-1.867c0.003,0,0.024,0,0.028,0h74.555c1.227-0.002,2.243,0.837,2.327,1.921
		c0.252,2.895-0.721,5.854-2.896,8.88c-21.364,29.781-42.208,59.015-62.532,87.702c-0.777,1.132-0.426,1.697,1.049,1.697
		l53.33,0.028c0.862,0,1.576-0.623,1.576-1.393l-0.037-12.578c0-1.913,1.079-2.857,3.246-2.84l3.87,0.058
		c1.303,0.028,2.323,0.979,2.323,2.141l0.036,17.032c0,3.274-2.994,5.93-6.67,5.93l-71.12,0.029
		c-2.682,0.009-4.862-1.902-4.873-4.27c-0.002-0.813,0.25-1.609,0.749-2.299l64.916-91.935
		C545.026,394.057,544.66,393.462,543.082,393.462z"/>
</g>
<g>
	<linearGradient id="SVGID_1_" gradientUnits="userSpaceOnUse" x1="321.8457" y1="148.8867" x2="321.8457" y2="68.8979">
		<stop  offset="0.2374" style="stop-color:#F08C1B;stop-opacity:0.6"/>
		<stop  offset="0.404" style="stop-color:#F6F901"/>
	</linearGradient>
	<path fill="url(#SVGID_1_)" d="M325.205,118.173c3.26-21.417-7.881-36.669-26.583-46.412c-2.319-1.204-2.196-1.993,0.379-2.372
		c29.435-4.337,53.896,20.658,46.33,49.89c-4.113,16.042-20.981,32.047-39.272,29.296c-2.468-0.357-2.658-1.212-0.571-2.561
		C315.141,139.814,323.433,129.754,325.205,118.173z"/>
	<linearGradient id="SVGID_2_" gradientUnits="userSpaceOnUse" x1="273.4565" y1="153.2329" x2="273.4565" y2="76.813">
		<stop  offset="0.2374" style="stop-color:#F08C1B;stop-opacity:0.6"/>
		<stop  offset="0.404" style="stop-color:#F6F901"/>
	</linearGradient>
	<path fill="url(#SVGID_2_)" d="M287.61,150.571c-2.447,1.686-5.116,2.573-8.007,2.657c-1.688,0.062-1.973-0.539-0.855-1.805
		c8.07-9.111,10.572-23.22,6.932-35.462c-5.548-18.667-19.093-28.612-40.635-29.836c-4.999-0.273-5.231-1.477-0.696-3.607
		c19.497-9.113,35.846-7.308,49.052,5.411C312.482,106.277,308.751,136.018,287.61,150.571z"/>
	<linearGradient id="SVGID_3_" gradientUnits="userSpaceOnUse" x1="358.5859" y1="157.5352" x2="358.5859" y2="78.5952">
		<stop  offset="0.2374" style="stop-color:#F08C1B;stop-opacity:0.6"/>
		<stop  offset="0.404" style="stop-color:#F6F901"/>
	</linearGradient>
	<path fill="url(#SVGID_3_)" d="M356.091,78.785c43.23,11.485,40.73,67.389-0.985,78.019c-6.927,1.771-14.173,0-20.818-1.835
		c-6.159-1.709-6.109-3.163,0.159-4.367c16.899-3.289,27.484-13.35,31.774-30.182c2.886-11.369,0.21-23.359-8.041-35.972
		c-0.445-0.69-1.141-1.187-1.933-1.39c-1.158-0.274-1.929-0.908-2.308-1.9C353.138,78.985,353.854,78.193,356.091,78.785z"/>
	<linearGradient id="SVGID_4_" gradientUnits="userSpaceOnUse" x1="233.6587" y1="169.5708" x2="233.6587" y2="99.6191">
		<stop  offset="0.2374" style="stop-color:#F08C1B;stop-opacity:0.6"/>
		<stop  offset="0.404" style="stop-color:#F6F901"/>
	</linearGradient>
	<path fill="url(#SVGID_4_)" d="M256.724,166.391c7.278-33-24.178-60.84-55.855-47.111c-5.379,2.32-6.171,1.255-2.374-3.195
		c14.156-16.599,30.612-20.647,49.369-12.148c25.442,11.515,31.201,44.038,11.612,63.939
		C256.839,170.554,255.921,170.058,256.724,166.391z"/>
	<linearGradient id="SVGID_5_" gradientUnits="userSpaceOnUse" x1="386.2109" y1="180.6074" x2="386.2109" y2="106.6304">
		<stop  offset="0.2374" style="stop-color:#F08C1B;stop-opacity:0.6"/>
		<stop  offset="0.404" style="stop-color:#F6F901"/>
	</linearGradient>
	<path fill="url(#SVGID_5_)" d="M399.224,149.243c7.752-11.58,8.261-25.756,2.883-38.314c-2.005-4.704-0.938-5.547,3.194-2.53
		c23.923,17.59,21.105,50.367-2.658,66.437c-15.983,10.822-37.563,5.318-51.359-7.338c-1.203-1.098-1.004-1.772,0.596-2.025
		c1.647-0.233,3.22,0.063,4.717,0.886c1.064,0.583,2.243,0.908,3.452,0.949C377.644,168.044,390.701,162.024,399.224,149.243z"/>
	<linearGradient id="SVGID_6_" gradientUnits="userSpaceOnUse" x1="208.1992" y1="192.3257" x2="208.1992" y2="133.835">
		<stop  offset="0.2374" style="stop-color:#F08C1B;stop-opacity:0.6"/>
		<stop  offset="0.404" style="stop-color:#F6F901"/>
	</linearGradient>
	<path fill="url(#SVGID_6_)" d="M240.584,184.643c-2.023-14.045-16.204-26.069-28.292-29.39c-15.4-4.261-29.03-0.064-40.887,12.591
		c-0.591,0.634-1.244,0.718-1.961,0.255c-0.508-0.317-0.845-0.792-1.013-1.425c-0.103-0.414-0.092-0.841,0.033-1.234
		c6.307-19.381,18.038-29.855,35.189-31.415c31.36-2.879,52.817,27.653,41.169,56.158c-1.18,2.91-2.213,2.858-3.099-0.159
		C241.236,188.273,240.858,186.479,240.584,184.643z"/>
	<linearGradient id="SVGID_7_" gradientUnits="userSpaceOnUse" x1="405.6406" y1="215.2686" x2="405.6406" y2="151.3838">
		<stop  offset="0.2374" style="stop-color:#F08C1B;stop-opacity:0.6"/>
		<stop  offset="0.404" style="stop-color:#F6F901"/>
	</linearGradient>
	<path fill="url(#SVGID_7_)" d="M395.646,196.571c23.167-0.379,40.729-20.817,39.273-43.786c-0.058-0.714,0.472-1.339,1.193-1.397
		c0.256-0.02,0.512,0.036,0.741,0.163c0.966,0.528,1.694,1.308,2.184,2.343c7.72,15.796,7.708,29.749-0.033,41.854
		c-6.878,10.758-16.597,17.094-29.15,19.017c-16.069,2.446-29.467-4.008-40.188-19.364c-1.518-2.174-2.55-4.556-3.101-7.15
		c-0.337-1.602,0.172-1.939,1.521-1.011C377.432,193.606,386.618,196.721,395.646,196.571z"/>
	<linearGradient id="SVGID_8_" gradientUnits="userSpaceOnUse" x1="199.3403" y1="225.6479" x2="199.3403" y2="174.8774">
		<stop  offset="0.2374" style="stop-color:#F08C1B;stop-opacity:0.6"/>
		<stop  offset="0.404" style="stop-color:#F6F901"/>
	</linearGradient>
	<path fill="url(#SVGID_8_)" d="M221.216,201.412c-26.044-13.317-46.962-2.309-58.796,21.573c-1.879,3.76-2.911,3.536-3.104-0.661
		c-0.991-20.292,6.003-34.402,20.981-42.332c27.122-14.332,57.218,2.879,59.114,33.819c0.296,4.917-0.897,5.306-3.574,1.172
		C231.892,208.889,227.018,204.364,221.216,201.412z"/>
	<linearGradient id="SVGID_9_" gradientUnits="userSpaceOnUse" x1="412.4844" y1="256.085" x2="412.4844" y2="206.6118">
		<stop  offset="0.2374" style="stop-color:#F08C1B;stop-opacity:0.6"/>
		<stop  offset="0.404" style="stop-color:#F6F901"/>
	</linearGradient>
	<path fill="url(#SVGID_9_)" d="M382.642,224.381c21.553,18.635,52.592,12.434,64.716-13.256c2.973-6.329,4.673-6,5.092,0.984
		c1.017,17.461-5.786,30.464-20.409,39.009c-12.847,7.498-30.628,6.325-42.373-2.277c-11.013-8.082-16.761-19.457-17.244-34.14
		c-0.064-2.003,0.587-2.27,1.958-0.791C377.327,217.135,379.319,221.503,382.642,224.381z"/>
	<linearGradient id="SVGID_10_" gradientUnits="userSpaceOnUse" x1="206.1323" y1="279.2573" x2="206.1323" y2="215.082">
		<stop  offset="0.2374" style="stop-color:#F08C1B;stop-opacity:0.6"/>
		<stop  offset="0.404" style="stop-color:#F6F901"/>
	</linearGradient>
	<path fill="url(#SVGID_10_)" d="M239.73,241.469c-28.673-18.292-61.932,0.248-62.849,33.467c-0.147,5.4-1.551,5.739-4.208,1.013
		c-18.735-33.41,15.095-73.304,50.632-57.169c9.452,4.283,16.213,10.706,20.286,19.269
		C246.248,243.658,244.962,244.797,239.73,241.469z"/>
	<linearGradient id="SVGID_11_" gradientUnits="userSpaceOnUse" x1="404.002" y1="296.5288" x2="404.002" y2="238.2837">
		<stop  offset="0.2374" style="stop-color:#F08C1B;stop-opacity:0.6"/>
		<stop  offset="0.404" style="stop-color:#F6F901"/>
	</linearGradient>
	<path fill="url(#SVGID_11_)" d="M418.025,293.732c-32.09,12.306-63.04-18.004-51.266-51.7c1.767-5.104,3.105-4.994,4.015,0.32
		c5.536,33.156,45.696,46.698,69.688,21.512c2.927-3.058,3.93-2.519,3.003,1.616C440.468,278.954,431.99,288.372,418.025,293.732z"
		/>
	<linearGradient id="SVGID_12_" gradientUnits="userSpaceOnUse" x1="224.9536" y1="324.1694" x2="224.9536" y2="249.6318">
		<stop  offset="0.2374" style="stop-color:#F08C1B;stop-opacity:0.6"/>
		<stop  offset="0.404" style="stop-color:#F6F901"/>
	</linearGradient>
	<path fill="url(#SVGID_12_)" d="M253.813,264.37c-12.722-3.826-30.54,3.1-38.608,13.634c-9.327,12.214-11.162,26.294-5.507,42.239
		c1.561,4.408,0.549,5.105-3.037,2.086c-44.398-37.331,10.349-100.036,52.657-59.603c0.539,0.5,0.558,1.345,0.038,1.886
		c-0.259,0.267-0.614,0.418-0.986,0.424C256.787,265.013,255.265,264.792,253.813,264.37z"/>
	<linearGradient id="SVGID_13_" gradientUnits="userSpaceOnUse" x1="377.9551" y1="331.4463" x2="377.9551" y2="262.0034">
		<stop  offset="0.2374" style="stop-color:#F08C1B;stop-opacity:0.6"/>
		<stop  offset="0.404" style="stop-color:#F6F901"/>
	</linearGradient>
	<path fill="url(#SVGID_13_)" d="M364.86,302.367c12.887,13.056,28.804,16.041,47.752,8.955c3.208-1.203,3.768-0.444,1.675,2.277
		c-34.524,45.179-98.923-4.463-63.67-48.718c3.479-4.346,4.84-3.768,4.08,1.735C352.957,279.59,355.457,292.876,364.86,302.367z"/>
	<linearGradient id="SVGID_14_" gradientUnits="userSpaceOnUse" x1="252.856" y1="353.4585" x2="252.856" y2="274.0093">
		<stop  offset="0.2374" style="stop-color:#F08C1B;stop-opacity:0.6"/>
		<stop  offset="0.404" style="stop-color:#F6F901"/>
	</linearGradient>
	<path fill="url(#SVGID_14_)" d="M279.698,279.493c-34.493,6.265-46.708,45.557-21.772,70.647c3.061,3.1,2.51,4.027-1.645,2.786
		c-35.729-10.693-43.387-52.772-12.026-74.13c9.683-6.58,24.304-4.998,35-3.288c1.455,0.231,2.069,1.086,1.838,2.563
		C280.981,278.786,280.424,279.357,279.698,279.493z"/>
	<linearGradient id="SVGID_15_" gradientUnits="userSpaceOnUse" x1="338.4004" y1="354.4482" x2="338.4004" y2="276.8374">
		<stop  offset="0.2374" style="stop-color:#F08C1B;stop-opacity:0.6"/>
		<stop  offset="0.404" style="stop-color:#F6F901"/>
	</linearGradient>
	<path fill="url(#SVGID_15_)" d="M333.399,279.938c-22.752,27.649,0.222,65.395,34.016,64.225c1.126-0.021,2.05,0.387,2.787,1.229
		c0.424,0.47,0.372,1.199-0.107,1.626c-0.063,0.055-0.128,0.109-0.208,0.148c-16.436,9.027-31.002,9.661-43.701,1.899
		c-13.395-8.185-20.02-20.048-19.873-35.592c0.146-15.421,8.081-27.494,23.797-36.228c0.78-0.442,1.593-0.525,2.436-0.253
		c0.979,0.332,1.503,1.391,1.171,2.365C333.646,279.57,333.54,279.764,333.399,279.938z"/>
	<linearGradient id="SVGID_16_" gradientUnits="userSpaceOnUse" x1="289.6211" y1="362.2227" x2="289.6211" y2="281.0806">
		<stop  offset="0.2374" style="stop-color:#F08C1B;stop-opacity:0.6"/>
		<stop  offset="0.404" style="stop-color:#F6F901"/>
	</linearGradient>
	<path fill="url(#SVGID_16_)" d="M306.059,285.283c-11.52,7.908-19.873,19.491-19.588,34.234
		c0.359,17.881,8.585,30.54,24.683,37.961c3.313,1.519,3.217,2.789-0.284,3.799c-3.861,1.118-7.869,1.244-12.026,0.379
		c-17.3-3.604-27.985-13.911-32.056-30.91c-6.014-25.12,13.099-48.626,37.879-49.641
		C309.983,280.874,310.447,282.269,306.059,285.283z"/>
</g>
</svg>
